<svg xmlns="http://www.w3.org/2000/svg" xmlns:xlink="http://www.w3.org/1999/xlink" version="1.1" x="0px" y="0px" viewBox="0 0 50.4 50.4" enable-background="new 0 0 50.4 50.4" xml:space="preserve"><g><path d="M43.974,12.144c0,0,1.38,0.118,2.316,1.308c0.942,1.192,0.777,2.369,0.777,2.369l3.163-1.057l-2.019-1.461l0.773-2.03   l-2.244,0.298l-0.95-2.41L43.974,12.144z"></path><path d="M45.523,14.111c0.942,1.15,0.771,2.848-0.38,3.788c-1.153,0.942-2.846,0.767-3.788-0.384   c-0.94-1.151-0.771-2.844,0.381-3.784C42.888,12.788,44.583,12.959,45.523,14.111z"></path><circle cx="7.762" cy="25.824" r="2.853"></circle><path d="M21.001,28.613c-0.126-0.768-0.853-1.287-1.621-1.16L6.241,29.63c-0.005,0.001-0.248,0.051-0.268,0.057   C1.909,30.903,0.084,38.299,0,40.914h8.396l1.435-6.317l8.785-0.005c0.778,0,1.407-0.633,1.407-1.409   c-0.001-0.778-0.631-1.409-1.408-1.409h-0.001l-8.107,0.006l9.336-1.545C20.609,30.106,21.129,29.381,21.001,28.613z"></path></g><g><rect x="21.049" y="12.868" transform="matrix(0.6326 0.7745 -0.7745 0.6326 23.2744 -10.7631)" width="3.865" height="12.564"></rect><path d="M27.877,14.147l3.063,3.752l0,0l1.146,1.4l2.953-2.415l0.711,0.872l-4.211,3.441l-1.53-1.874   c-0.537-0.66-1.533-0.756-2.189-0.22c-0.017,0.014-7.791,6.361-7.791,6.361l1.949,2.385l6.607-5.398l0.655,0.802l4.161,5.093   l0.642,0.785l-6.607,5.397l1.947,2.385c0,0,7.773-6.347,7.8-6.37c0.659-0.537,0.761-1.508,0.222-2.167l-1.617-1.98l-0.143-0.177   l4.211-3.439l0.728,0.891l-2.952,2.414l1.35,1.652h-0.001l3.063,3.754c0.41,0.5,1.152,0.575,1.654,0.167   c0.5-0.41,0.575-1.152,0.165-1.653l-2.928-3.584l1.787-1.458c1.498-1.223,1.469-2.988,0.271-4.454l-4.372-5.352   c-1.198-1.467-2.923-1.847-4.419-0.623l-1.785,1.459l-2.722-3.332c-0.411-0.503-1.151-0.577-1.654-0.167   C27.542,12.906,27.466,13.645,27.877,14.147z"></path><rect x="23.896" y="25.969" transform="matrix(-0.7746 0.6325 -0.6325 -0.7746 67.0305 33.9591)" width="7.135" height="5.912"></rect><rect x="29.892" y="33.366" transform="matrix(-0.7745 0.6325 -0.6325 -0.7745 86.5193 39.758)" width="12.564" height="3.865"></rect></g></svg>