<svg xmlns="http://www.w3.org/2000/svg" xmlns:xlink="http://www.w3.org/1999/xlink" version="1.1" x="0px" y="0px" viewBox="0 0 100 100" enable-background="new 0 0 100 100" xml:space="preserve"><g><path d="M94.3,35.8H46.4c-1.5,0-2.7,1.2-2.7,2.7v1.1c0,1.5,1.2,2.7,2.7,2.7h47.9c1.5,0,2.7-1.2,2.7-2.7v-1.1   C97,37,95.8,35.8,94.3,35.8z"></path><path d="M94.3,24.8H46.4c-1.5,0-2.7,1.2-2.7,2.7v1.1c0,1.5,1.2,2.7,2.7,2.7h47.9c1.5,0,2.7-1.2,2.7-2.7v-1.1   C97,26,95.8,24.8,94.3,24.8z"></path><path d="M94.3,47.8H46.4c-1.5,0-2.7,1.2-2.7,2.7v1.1c0,1.5,1.2,2.7,2.7,2.7h47.9c1.5,0,2.7-1.2,2.7-2.7v-1.1   C97,49,95.8,47.8,94.3,47.8z"></path><path d="M94.3,59.8H4.4c-1.5,0-2.7,1.2-2.7,2.7v1.1c0,1.5,1.2,2.7,2.7,2.7h89.9c1.5,0,2.7-1.2,2.7-2.7v-1.1   C97,61,95.8,59.8,94.3,59.8z"></path><path d="M94.3,71.8H4.4c-1.5,0-2.7,1.2-2.7,2.7v1.1c0,1.5,1.2,2.7,2.7,2.7h89.9c1.5,0,2.7-1.2,2.7-2.7v-1.1   C97,73,95.8,71.8,94.3,71.8z"></path><circle cx="8.2" cy="28.9" r="4.3"></circle><circle cx="21.2" cy="28.9" r="4.3"></circle><circle cx="33.2" cy="28.9" r="4.3"></circle><circle cx="8.2" cy="38.9" r="4.3"></circle><circle cx="21.2" cy="38.9" r="4.3"></circle><circle cx="33.2" cy="38.9" r="4.3"></circle><circle cx="8.2" cy="49.9" r="4.3"></circle><circle cx="21.2" cy="49.9" r="4.3"></circle><circle cx="33.2" cy="49.9" r="4.3"></circle></g></svg>